<?xml version="1.0" encoding="utf-8"?>
<!-- Generator: Adobe Illustrator 25.3.0, SVG Export Plug-In . SVG Version: 6.00 Build 0)  -->
<svg version="1.1" id="Layer_1" xmlns="http://www.w3.org/2000/svg" xmlns:xlink="http://www.w3.org/1999/xlink" x="0px" y="0px"
	 viewBox="0 0 100 100" style="enable-background:new 0 0 100 100;" xml:space="preserve">
<style type="text/css">
	.st0{clip-path:url(#SVGID_2_);fill:#EA5455;}
</style>
<g>
	<g>
		<g>
			<defs>
				<path id="SVGID_1_" d="M28.3,43.9c0,0,0.3,1.1-1.7,0.8C26.6,44.8,27.4,43.5,28.3,43.9 M24.4,44.3c0,0,2.9-4.1,4.6-1.1
					c-0.5,1.4-1.3-1.2-2.7,1.2c0,0-0.3-0.3-0.6-0.4c0,0,0.3,0.2,0.3,0.6C26,44.5,25.4,44.2,24.4,44.3z M32.3,45L32,43.3
					c4.1,2.1,2.1,6.5,4.4,8.4C32.2,50.8,34.2,46.9,32.3,45z M29.1,44.2c0,0,1.5,1.1,1.6,2.8c-0.7-1.1-0.2,1-1.6,2.8
					c0,0-0.4-3.1-2.6-4.6c0,0,1.4-0.4,2.2,0.5c0,0,0-0.5-0.4-0.8C28.2,44.9,28.9,44.7,29.1,44.2z M28.7,42.3c3.7,0.1,3.2,4,1.5,2.8
					c0,0,0.5-1-0.2-1.9c0,0,0.1,0.5,0,1C29.9,43.7,29,42.6,28.7,42.3z M19.4,43.9c0,0-0.3,1.1,1.7,0.8
					C21.1,44.8,20.3,43.5,19.4,43.9z M23.3,44.3c0,0-2.9-4.1-4.6-1.1c0.5,1.4,1.3-1.2,2.7,1.2c0,0,0.3-0.3,0.6-0.4
					c0,0-0.3,0.2-0.3,0.6C21.8,44.5,22.3,44.2,23.3,44.3z M15.4,45l0.3-1.7c-4.1,2.1-2.1,6.5-4.4,8.4C15.5,50.8,13.5,46.9,15.4,45z
					 M18.7,44.2c0,0-1.5,1.1-1.6,2.8c0.7-1.1,0.2,1,1.6,2.8c0,0,0.4-3.1,2.6-4.6c0,0-1.4-0.4-2.2,0.5c0,0,0-0.5,0.4-0.8
					C19.6,44.9,18.8,44.7,18.7,44.2z M19.1,42.3c-3.7,0.1-3.2,4-1.5,2.8c0,0-0.5-1,0.2-1.9c0,0-0.1,0.5,0,1
					C17.8,43.7,18.7,42.6,19.1,42.3z M22.5,46.8c-1.6,1.5,1.4,1.8,0.7,2.8c-1.6-0.1-3.5,1.8-3.5,1.8c-0.8-2.5,1-7.3,4.2-6.1
					c3.3-1.2,5,3.6,4.2,6.1c0,0-1.9-1.9-3.5-1.8c-0.7-1,2.3-1.3,0.7-2.8C24.8,47.5,23,47.5,22.5,46.8z M21.7,52.4
					c-0.1-0.2-0.2-0.6-0.2-0.6c-0.4,0.5-0.3,1.6-0.3,1.6c-2.1-4.2,7.4-4.4,5.1,0c0,0,0.1-1.1-0.3-1.6c0,0,0,0.5-0.2,0.6
					C26.1,50.7,21.7,50.7,21.7,52.4z M22.3,55c0,0.9,0.3,1.8,0.3,1.8l0-0.3c0.3,0.6,2.2,0.6,2.5,0l0,0.3c0,0,0.3-0.8,0.3-1.8
					C27.9,58.7,19.9,58.7,22.3,55z M23.9,60.6c-2.1-0.8-2.1-1.7-2.1-1.7c-0.1,0.3,0,0.6,0,0.6c-1.4-1.2-1.2-2.7-1.2-2.7l-0.3,0.2
					c0.3-0.9,0.1-2.8,0.1-2.8c1.1,1.1-0.4,4.4,3.5,4.3c3.9,0.1,2.4-3.2,3.5-4.3c0,0-0.2,1.9,0.1,2.8l-0.3-0.2c0,0,0.1,1.6-1.2,2.7
					c0,0,0.1-0.3,0-0.6C26,58.9,26,59.8,23.9,60.6z M12.8,42.2c2.3,2.5,5.3-2.9,7.9-0.8c-0.3-2.3,2.5,0.6,2.8,1.6
					c0.5-2.4-0.7-6.2-3.5-6.4c1.6,1.2,0,1.9,0.6,3C16.1,37,14.9,42.3,12.8,42.2z M11.6,41.4c1.5-2.2,3.5-3.9,6-5.1
					c0.4,0.2,0.7,0.5,1,1.1C15.6,35.4,13.5,41.9,11.6,41.4z M9.4,52.8c-0.2-1-0.3-2-0.3-3c0-2.5,0.6-4.9,1.7-7
					c0.3,0.5,0.9,0.8,1.8,0.8C11.1,45.4,12.6,50,9.4,52.8z M10.3,55.8c-0.3-0.6-0.5-1.2-0.7-1.9c0.5,0.1,1,0,1.5-0.3
					C10.8,54.4,10.5,55.1,10.3,55.8z M19.1,57.2c0,0,1.6,3.4,2,2.7c1.4,3,3.9,3.1,5.2,0.1c0.4,0.6,2.4-2.8,2.4-2.8
					C27.8,67.8,19.8,67.7,19.1,57.2z M38.1,53.9c-0.2,0.6-0.4,1.3-0.7,1.9c-0.2-0.7-0.4-1.4-0.8-2.1C37.1,54,37.6,54,38.1,53.9z
					 M37,42.8c1.1,2.1,1.7,4.5,1.7,7c0,1-0.1,2-0.3,3c-3.2-2.8-1.8-7.4-3.2-9.2C36.1,43.6,36.7,43.3,37,42.8z M30.2,36.3
					c2.4,1.1,4.4,2.9,5.9,5c-1.9,0.4-4-5.9-6.9-4C29.4,36.8,29.8,36.5,30.2,36.3z M23.9,34.9c1.1,0,2.3,0.1,3.3,0.4
					c-1.3,0.2-2.5,0.8-3.3,2.1c-0.8-1.3-2-1.9-3.3-2.1C21.6,35,22.7,34.9,23.9,34.9z M35,42.2c-2.3,2.5-5.3-2.9-7.9-0.8
					c0.3-2.3-2.5,0.6-2.8,1.6c-0.5-2.4,0.7-6.2,3.5-6.4c-1.6,1.2,0,1.9-0.6,3C31.7,37,32.9,42.3,35,42.2z"/>
			</defs>
			<use xlink:href="#SVGID_1_"  style="overflow:visible;fill-rule:evenodd;clip-rule:evenodd;fill:#7367F0;"/>
			<clipPath id="SVGID_2_">
				<use xlink:href="#SVGID_1_"  style="overflow:visible;"/>
			</clipPath>
			<rect x="9" y="34.9" class="st0" width="29.7" height="32.9"/>
		</g>
		<g>
			<g>
				<!-- <path style="fill:#6e7777;" d="M45.9,57.7V41.3h1.8V50l7.7-8.8h2.2L52,47.8l6.1,10h-2l-5.3-8.7l-3,3.3v5.3H45.9z"/> -->
                <text x="50%" y="50%" dy=".4em" dx=".8em" text-anchor="middle" style="fill:#EA5455; font-family: Public Sans,sans-serif; font-size: 18px; font-weight: 500;">
        KGC
    </text>
				<!-- <path style="fill:#6e7777;" d="M67.1,57.9c-1.4,0-2.7-0.3-3.7-1c-1-0.7-1.8-1.6-2.4-2.9s-0.8-2.8-0.8-4.6c0-1.8,0.3-3.3,0.8-4.6
					c0.6-1.3,1.4-2.2,2.4-2.9c1-0.7,2.3-1,3.7-1c0.8,0,1.5,0.1,2.2,0.4c0.7,0.3,1.3,0.7,1.9,1.2c0.6,0.5,1,1,1.3,1.7
					c0.3,0.6,0.5,1.3,0.6,2h-1.9c-0.1-0.6-0.4-1.2-0.7-1.8c-0.4-0.5-0.9-1-1.5-1.3s-1.2-0.5-2-0.5c-1,0-1.9,0.2-2.6,0.7
					c-0.8,0.5-1.3,1.2-1.8,2.3c-0.4,1-0.6,2.3-0.6,3.8c0,1.2,0.1,2.2,0.4,3.1s0.6,1.6,1,2.1s1,1,1.6,1.2c0.6,0.3,1.3,0.4,2,0.4
					s1.4-0.1,1.9-0.4s1-0.6,1.4-1c0.4-0.4,0.6-0.9,0.8-1.3s0.3-0.9,0.3-1.4l0-1.6h-4.2v-1.3l6,0v8.4h-1.4v-2.6
					c-0.3,0.5-0.7,1-1.1,1.4c-0.5,0.4-1,0.8-1.6,1S68,57.9,67.1,57.9z"/>
				<path style="fill:#6e7777;" d="M83.6,57.9c-1.5,0-2.7-0.3-3.7-1s-1.8-1.6-2.3-2.9c-0.5-1.3-0.8-2.8-0.8-4.6c0-1.8,0.3-3.3,0.8-4.6
					c0.5-1.3,1.3-2.2,2.3-2.9c1-0.7,2.3-1,3.7-1c1.1,0,2.1,0.2,3,0.7c0.9,0.5,1.6,1.1,2.1,1.9s0.8,1.6,0.9,2.6h-1.9
					c-0.1-0.7-0.4-1.3-0.7-1.8s-0.8-1-1.4-1.3c-0.6-0.3-1.3-0.5-2.1-0.5c-1.1,0-2,0.2-2.7,0.7c-0.7,0.5-1.3,1.2-1.6,2.3
					c-0.4,1-0.6,2.3-0.6,3.9c0,2.4,0.4,4.1,1.2,5.2c0.8,1.1,2,1.7,3.6,1.7c0.8,0,1.5-0.2,2.1-0.5c0.6-0.3,1-0.8,1.4-1.3
					c0.4-0.6,0.6-1.2,0.7-1.8h1.9c-0.1,0.7-0.3,1.3-0.6,2s-0.7,1.2-1.2,1.7c-0.5,0.5-1.1,0.9-1.8,1.2S84.5,57.9,83.6,57.9z"/> -->
			</g>
		</g>
	</g>
</g>
</svg>
