<?xml version="1.0" encoding="utf-8"?>
<!-- Generator: Adobe Illustrator 25.3.0, SVG Export Plug-In . SVG Version: 6.00 Build 0)  -->
<svg version="1.1" id="Layer_1" xmlns="http://www.w3.org/2000/svg" xmlns:xlink="http://www.w3.org/1999/xlink" x="0px" y="0px"
	 viewBox="0 0 420 420" style="enable-background:new 0 0 420 420;" xml:space="preserve">
<style type="text/css">
	.st0{clip-path:url(#SVGID_2_);fill:#EA5455;}
	.st1{fill:#EA5455;stroke:#EA5455;stroke-width:0.5823;stroke-miterlimit:10;}
</style>
<g>
	<g>
		<g>
			<defs>
				<path id="SVGID_1_" d="M228.4,136c0,0,1.2,4.6-7,3.4C221.4,139.4,224.6,134.4,228.4,136 M212.2,137.4c0,0,11.8-16.9,18.8-4.5
					c-1.9,5.9-5.5-5.1-10.9,4.9c0,0-1.2-1.4-2.5-1.6c0,0,1.1,0.9,1.1,2.4C218.7,138.5,216.4,137,212.2,137.4z M244.6,140.3l-1.1-7
					c16.9,8.6,8.7,26.6,18,34.6C244.3,164.1,252.5,148.4,244.6,140.3z M231.3,137.2c0,0,6,4.3,6.4,11.4c-3-4.4-0.9,4.1-6.7,11.3
					c0,0-1.7-12.7-10.5-18.8c0,0,5.7-1.5,8.9,1.9c0,0-0.2-2-1.7-3.1C227.7,139.9,230.7,139.1,231.3,137.2z M229.8,129.3
					c15.1,0.3,13,16.6,6.2,11.4c0,0,2.1-4.3-0.7-7.7c0,0,0.4,2-0.1,4.1C234.9,134.9,231.2,130.4,229.8,129.3z M191.6,136
					c0,0-1.2,4.6,7,3.4C198.6,139.4,195.4,134.4,191.6,136z M207.8,137.4c0,0-11.8-16.9-18.8-4.5c1.9,5.9,5.5-5.1,10.9,4.9
					c0,0,1.2-1.4,2.5-1.6c0,0-1.1,0.9-1.1,2.4C201.3,138.5,203.6,137,207.8,137.4z M175.4,140.3l1.1-7c-16.9,8.6-8.7,26.6-18,34.6
					C175.7,164.1,167.5,148.4,175.4,140.3z M188.7,137.2c0,0-6,4.3-6.4,11.4c3-4.4,0.9,4.1,6.7,11.3c0,0,1.7-12.7,10.5-18.8
					c0,0-5.7-1.5-8.9,1.9c0,0,0.2-2,1.7-3.1C192.3,139.9,189.3,139.1,188.7,137.2z M190.2,129.3c-15.1,0.3-13,16.6-6.2,11.4
					c0,0-2.1-4.3,0.7-7.7c0,0-0.4,2,0.1,4.1C185.1,134.9,188.8,130.4,190.2,129.3z M204.2,147.9c-6.7,6.2,5.8,7.5,2.9,11.7
					c-6.7-0.4-14.5,7.3-14.5,7.3c-3.2-10.5,4.1-30.1,17.4-25.2c13.4-4.9,20.6,14.7,17.4,25.2c0,0-7.8-7.7-14.5-7.3
					c-2.9-4.2,9.5-5.4,2.9-11.7C213.6,150.6,206.4,150.6,204.2,147.9z M201.3,170.9c-0.5-0.7-0.6-2.5-0.6-2.5
					c-1.5,1.9-1.2,6.4-1.2,6.4c-8.8-17.2,30.3-17.9,21.1,0c0,0,0.4-4.5-1.2-6.4c0,0-0.1,1.9-0.6,2.5
					C219.1,164,200.9,164,201.3,170.9z M203.4,181.4c-0.1,3.9,1.3,7.2,1.3,7.2l0.2-1.3c1.1,2.3,9,2.3,10.1,0l0.2,1.3
					c0,0,1.4-3.4,1.3-7.2C226.3,196.5,193.7,196.5,203.4,181.4z M210,204.4c-8.8-3.4-8.5-7-8.5-7c-0.4,1.2-0.1,2.6-0.1,2.6
					c-5.6-4.8-5.1-11.2-5.1-11.2l-1.1,0.7c1.2-3.7,0.6-11.6,0.6-11.6c4.5,4.5-1.7,17.9,14.3,17.6c15.9,0.3,9.7-13.1,14.3-17.6
					c0,0-0.7,7.9,0.6,11.6l-1.1-0.7c0,0,0.5,6.4-5.1,11.2c0,0,0.2-1.4-0.1-2.6C218.5,197.4,218.8,201.1,210,204.4z M164.5,128.8
					c9.2,10.4,21.8-11.8,32.3-3.3c-1.1-9.5,10.1,2.7,11.3,6.6c2-9.7-2.7-25.4-14.5-26.3c6.6,4.9,0,7.9,2.3,12.3
					C177.9,107.3,173.1,129.4,164.5,128.8z M159.7,125.4c6.1-8.9,14.6-16.1,24.4-20.8c1.6,0.8,3,2.1,4,4.4
					C175.9,101,167.6,127.5,159.7,125.4z M150.4,172.3c-0.8-4-1.3-8.2-1.3-12.4c0-10.4,2.6-20.1,7.1-28.6c1.3,2.1,3.6,3.4,7.4,3.5
					C157.6,142,163.6,160.9,150.4,172.3z M154.4,184.8c-1.1-2.5-2.1-5.1-2.9-7.7c2.1,0.3,4.2,0.1,6.2-1.1
					C156.3,179,155.1,181.9,154.4,184.8z M190.2,190.5c0,0,6.7,13.9,8.4,11.2c5.7,12.3,16,12.8,21.4,0.3c1.7,2.6,9.8-11.6,9.8-11.6
					C226.1,233.9,193.1,233.5,190.2,190.5z M268.4,177.1c-0.8,2.6-1.7,5.2-2.9,7.7c-0.7-2.9-1.8-5.8-3.4-8.8
					C264.2,177.2,266.3,177.5,268.4,177.1z M263.8,131.2c4.6,8.5,7.1,18.3,7.1,28.6c0,4.3-0.4,8.4-1.3,12.4
					c-13.3-11.4-7.2-30.3-13.3-37.6C260.1,134.6,262.5,133.3,263.8,131.2z M235.8,104.7c9.9,4.6,18.3,11.8,24.4,20.7
					c-7.8,1.7-16.3-24.2-28.4-16.2C232.8,106.8,234.2,105.5,235.8,104.7z M210,98.9c4.7,0,9.3,0.5,13.7,1.6
					c-5.4,0.7-10.3,3.1-13.7,8.5c-3.4-5.4-8.3-7.8-13.7-8.5C200.7,99.5,205.3,98.9,210,98.9z M255.5,128.8
					c-9.2,10.4-21.8-11.8-32.3-3.3c1.1-9.5-10.1,2.7-11.3,6.6c-2-9.7,2.7-25.4,14.5-26.3c-6.6,4.9,0,7.9-2.3,12.3
					C242.1,107.3,246.9,129.4,255.5,128.8z"/>
			</defs>
			<use xlink:href="#SVGID_1_"  style="overflow:visible;fill-rule:evenodd;clip-rule:evenodd;fill:#7367F0;"/>
			<clipPath id="SVGID_2_">
				<use xlink:href="#SVGID_1_"  style="overflow:visible;"/>
			</clipPath>
			<rect x="149.1" y="98.9" class="st0" width="121.8" height="135"/>
		</g>
		<g>
			<g>
				<path class="st1"  d="M210,262.5c-14.6,0-29.2-5.6-40.3-16.7l-44.6-44.6c-22.2-22.2-22.2-58.4,0-80.6l44.6-44.6
					c22.2-22.2,58.4-22.2,80.6,0l44.6,44.6c22.2,22.2,22.2,58.4,0,80.6l-44.6,44.6C239.2,256.9,224.6,262.5,210,262.5z M210,60.5
					c-14.3,0-28.6,5.4-39.5,16.3l-44.6,44.6c-21.8,21.8-21.8,57.2,0,79l44.6,44.6c21.8,21.8,57.2,21.8,79,0l44.6-44.6
					c21.8-21.8,21.8-57.2,0-79l-44.6-44.6C238.6,66,224.3,60.5,210,60.5z"/>
			</g>
			<g>
				<path class="st1" d="M241.5,249.4h-63c-31.4,0-57-25.6-57-57v-63c0-31.4,25.6-57,57-57h63c31.4,0,57,25.6,57,57v63
					C298.5,223.9,272.9,249.4,241.5,249.4z M178.5,73.5c-30.8,0-55.9,25.1-55.9,55.9v63c0,30.8,25.1,55.9,55.9,55.9h63
					c30.8,0,55.9-25.1,55.9-55.9v-63c0-30.8-25.1-55.9-55.9-55.9H178.5z"/>
			</g>
		</g>
	</g>
	<g>
		<g>
			<path style="fill:#EA5455;" d="M133,341.2v-59.2h6.6v31.6l27.9-31.6h7.8L155,305.4l21.9,35.8h-7.3l-19.2-31.2l-10.7,12v19.1H133z"/>
         <!-- <text x="50%" y="50%" dy=".4em" dx=".8em" text-anchor="middle" style="fill:#6e7777; font-family: Public Sans,sans-serif; font-size: 20px; font-weight: bold;"> -->
			<path style="fill:#EA5455;" d="M209.2,342.1c-5.1,0-9.5-1.2-13.2-3.5s-6.5-5.8-8.5-10.3c-2-4.5-3-10-3-16.4c0-6.5,1-12,3-16.5c2-4.6,4.9-8,8.6-10.4
				c3.7-2.4,8.2-3.6,13.3-3.6c2.8,0,5.5,0.5,8.1,1.5s4.8,2.4,6.8,4.2c2,1.7,3.6,3.7,4.8,6c1.2,2.2,1.9,4.6,2.1,7h-6.9
				c-0.4-2.3-1.3-4.4-2.6-6.3s-3.1-3.5-5.2-4.7c-2.1-1.2-4.5-1.8-7.1-1.8c-3.6,0-6.8,0.9-9.5,2.7c-2.7,1.8-4.8,4.5-6.3,8.1
				c-1.5,3.6-2.2,8.2-2.2,13.8c0,4.3,0.5,8,1.4,11.1c0.9,3.1,2.2,5.7,3.8,7.6c1.6,2,3.5,3.4,5.8,4.4c2.2,0.9,4.7,1.4,7.3,1.4
				c2.6,0,5-0.5,6.9-1.4s3.6-2.2,4.9-3.7s2.3-3.1,3-4.9c0.7-1.7,1-3.4,1.1-5l0.2-5.7h-15v-4.8l21.6,0v30.4h-5v-9.4
				c-1,1.8-2.4,3.5-4,5s-3.6,2.8-5.9,3.7S212.4,342.1,209.2,342.1z"/>
			<path style="fill:#EA5455;" d="M268.7,342.1c-5.3,0-9.7-1.2-13.4-3.6c-3.7-2.4-6.5-5.9-8.4-10.4c-1.9-4.5-2.9-10.1-2.9-16.6c0-6.5,1-12,2.9-16.5
				s4.7-7.9,8.4-10.3c3.7-2.3,8.2-3.5,13.4-3.5c4.1,0,7.7,0.9,10.9,2.6c3.2,1.7,5.7,4,7.6,6.8s3,5.9,3.4,9.3h-6.9
				c-0.5-2.4-1.3-4.6-2.6-6.5c-1.3-2-3-3.5-5.1-4.7c-2.1-1.2-4.6-1.8-7.5-1.8c-3.8,0-7,0.9-9.6,2.6c-2.6,1.8-4.6,4.5-5.9,8.1
				c-1.3,3.6-2,8.3-2,13.9c0,8.5,1.5,14.7,4.4,18.7c3,4,7.3,6,13.1,6c2.9,0,5.4-0.6,7.5-1.8c2.1-1.2,3.8-2.8,5.1-4.8
				c1.3-2,2.2-4.2,2.6-6.6h6.9c-0.3,2.4-1,4.8-2,7.1s-2.5,4.3-4.3,6.1c-1.8,1.8-4,3.2-6.6,4.2C275,341.5,272,342.1,268.7,342.1z"/>
		</g>
	</g>
</g>
</svg>
