<?xml version="1.0" encoding="utf-8"?>
<!-- Generator: Adobe Illustrator 25.3.0, SVG Export Plug-In . SVG Version: 6.00 Build 0)  -->
<svg version="1.1" id="Layer_1" xmlns="http://www.w3.org/2000/svg" xmlns:xlink="http://www.w3.org/1999/xlink" x="0px" y="0px"
	 viewBox="0 0 150 150" style="enable-background:new 0 0 150 150;" xml:space="preserve">
<style type="text/css">
	.st0{clip-path:url(#SVGID_2_);fill:#7367F0;}
</style>
<g>
	<g>
		<g>
			<defs>
				<path id="SVGID_1_" d="M88.3,57c0,0,0.8,3.3-5,2.5C83.2,59.4,85.6,55.8,88.3,57 M76.6,58c0,0,8.5-12.2,13.6-3.2
					c-1.4,4.3-4-3.7-7.9,3.5c0,0-0.8-1-1.8-1.2c0,0,0.8,0.7,0.8,1.7C81.3,58.8,79.7,57.7,76.6,58z M100,60.1L99.2,55
					c12.3,6.2,6.3,19.2,13,25C99.8,77.3,105.7,65.9,100,60.1z M90.4,57.9c0,0,4.4,3.1,4.6,8.2c-2.2-3.2-0.6,3-4.9,8.2
					c0,0-1.3-9.2-7.6-13.6c0,0,4.1-1.1,6.4,1.4c0,0-0.1-1.4-1.2-2.2C87.8,59.8,90,59.2,90.4,57.9z M89.3,52.1
					c10.9,0.2,9.4,12,4.5,8.2c0,0,1.5-3.1-0.5-5.6c0,0,0.3,1.5-0.1,3C93,56.2,90.3,52.9,89.3,52.1z M61.7,57c0,0-0.8,3.3,5,2.5
					C66.8,59.4,64.4,55.8,61.7,57z M73.4,58c0,0-8.5-12.2-13.6-3.2c1.4,4.3,4-3.7,7.9,3.5c0,0,0.8-1,1.8-1.2c0,0-0.8,0.7-0.8,1.7
					C68.7,58.8,70.3,57.7,73.4,58z M50,60.1l0.8-5.1c-12.3,6.2-6.3,19.2-13,25C50.2,77.3,44.3,65.9,50,60.1z M59.6,57.9
					c0,0-4.4,3.1-4.6,8.2c2.2-3.2,0.6,3,4.9,8.2c0,0,1.3-9.2,7.6-13.6c0,0-4.1-1.1-6.4,1.4c0,0,0.1-1.4,1.2-2.2
					C62.2,59.8,60,59.2,59.6,57.9z M60.7,52.1c-10.9,0.2-9.4,12-4.5,8.2c0,0-1.5-3.1,0.5-5.6c0,0-0.3,1.5,0.1,3
					C57,56.2,59.7,52.9,60.7,52.1z M70.8,65.6C66,70.1,74.9,71,72.8,74c-4.8-0.3-10.5,5.3-10.5,5.3c-2.3-7.6,2.9-21.7,12.6-18.2
					c9.7-3.6,14.9,10.6,12.6,18.2c0,0-5.6-5.6-10.5-5.3c-2.1-3,6.9-3.9,2.1-8.4C77.6,67.5,72.4,67.5,70.8,65.6z M68.7,82.2
					c-0.4-0.5-0.5-1.8-0.5-1.8c-1.1,1.4-0.8,4.6-0.8,4.6C61,72.6,89.3,72,82.6,85c0,0,0.3-3.2-0.8-4.6c0,0-0.1,1.4-0.5,1.8
					C81.6,77.2,68.4,77.2,68.7,82.2z M70.3,89.8c-0.1,2.8,1,5.2,1,5.2l0.1-0.9c0.8,1.7,6.5,1.7,7.3,0l0.1,0.9c0,0,1-2.4,1-5.2
					C86.8,100.7,63.2,100.7,70.3,89.8z M75,106.5c-6.3-2.4-6.2-5.1-6.2-5.1c-0.3,0.8-0.1,1.9-0.1,1.9c-4-3.5-3.7-8.1-3.7-8.1
					l-0.8,0.5c0.9-2.7,0.4-8.4,0.4-8.4c3.3,3.3-1.2,13,10.3,12.7c11.5,0.2,7-9.4,10.3-12.7c0,0-0.5,5.7,0.4,8.4l-0.8-0.5
					c0,0,0.4,4.6-3.7,8.1c0,0,0.2-1-0.1-1.9C81.2,101.4,81.3,104,75,106.5z M42.1,51.7c6.7,7.5,15.7-8.5,23.3-2.4
					c-0.8-6.8,7.3,1.9,8.2,4.8c1.4-7-1.9-18.3-10.5-19c4.7,3.5,0,5.7,1.6,8.9C51.8,36.3,48.3,52.2,42.1,51.7z M38.7,49.3
					c4.4-6.5,10.5-11.7,17.7-15c1.2,0.6,2.2,1.5,2.9,3.2C50.3,31.7,44.3,50.9,38.7,49.3z M31.9,83.2c-0.6-2.9-0.9-5.9-0.9-9
					c0-7.5,1.9-14.5,5.2-20.7C37,55,38.7,56,41.5,56C37.1,61.3,41.5,74.9,31.9,83.2z M34.8,92.3c-0.8-1.8-1.5-3.7-2.1-5.6
					c1.5,0.3,3.1,0.1,4.5-0.8C36.2,88.1,35.3,90.2,34.8,92.3z M60.7,96.4c0,0,4.8,10,6.1,8.1c4.1,8.9,11.5,9.2,15.4,0.2
					c1.2,1.9,7.1-8.4,7.1-8.4C86.6,127.8,62.8,127.5,60.7,96.4z M117.2,86.7c-0.6,1.9-1.3,3.8-2.1,5.6c-0.5-2.1-1.3-4.2-2.4-6.3
					C114.2,86.8,115.7,87,117.2,86.7z M113.9,53.5c3.3,6.2,5.2,13.2,5.2,20.7c0,3.1-0.3,6.1-0.9,9c-9.6-8.3-5.2-21.9-9.6-27.2
					C111.3,56,112.9,55,113.9,53.5z M93.7,34.3c7.1,3.3,13.2,8.5,17.6,15c-5.6,1.2-11.8-17.5-20.5-11.7
					C91.5,35.9,92.5,34.9,93.7,34.3z M75,30.2c3.4,0,6.7,0.4,9.9,1.1c-3.9,0.5-7.5,2.3-9.9,6.1c-2.5-3.9-6-5.7-9.9-6.1
					C68.3,30.6,71.6,30.2,75,30.2z M107.9,51.7c-6.7,7.5-15.7-8.5-23.3-2.4c0.8-6.8-7.3,1.9-8.2,4.8c-1.4-7,1.9-18.3,10.5-19
					c-4.7,3.5,0,5.7-1.6,8.9C98.2,36.3,101.7,52.2,107.9,51.7z"/>
			</defs>
			<use xlink:href="#SVGID_1_"  style="overflow:visible;fill-rule:evenodd;clip-rule:evenodd;fill:#7367F0;"/>
			<clipPath id="SVGID_2_">
				<use xlink:href="#SVGID_1_"  style="overflow:visible;"/>
			</clipPath>
			<rect x="31" y="30.2" class="st0" width="88.1" height="97.6"/>
		</g>
	</g>
</g>
</svg>
