<svg width="90" height="20" viewBox="0 0 131 44" fill="none" 
    xmlns="http://www.w3.org/2000/svg">
    <rect width="90" height="30" fill="none"/>
    <path fill-rule="evenodd" clip-rule="evenodd" d="M2 16.3536H11.252V7H2V16.3536ZM2 26.6755H11.252V17.3219H2V26.6755ZM21.4988 26.6736H12.2468V17.3219H21.4988V26.6736ZM22.3941 26.6736H31.6461V17.3219H22.3941V26.6736ZM41.8431 26.6736H32.5912V17.3219H41.8431V26.6736ZM22.3897 37H31.6433V27.6437H22.3897V37ZM63.6595 21.7714C63.6595 21.2233 63.7595 20.7127 63.9596 20.2396C64.1597 19.7665 64.4373 19.3537 64.7923 19.0014C65.1473 18.649 65.5717 18.3733 66.0654 18.1743C66.5592 17.9752 67.103 17.8757 67.6968 17.8757C68.2842 17.8757 68.8264 17.9752 69.3234 18.1743C69.8204 18.3733 70.248 18.649 70.6062 19.0014C70.9645 19.3537 71.2436 19.7665 71.4437 20.2396C71.6438 20.7127 71.7439 21.2233 71.7439 21.7714C71.7439 22.3195 71.6438 22.8302 71.4437 23.3033C71.2436 23.7763 70.9645 24.1891 70.6062 24.5415C70.248 24.8938 69.8204 25.1695 69.3234 25.3685C68.8264 25.5676 68.2842 25.6671 67.6968 25.6671C67.103 25.6671 66.5592 25.5676 66.0654 25.3685C65.5717 25.1695 65.1473 24.8938 64.7923 24.5415C64.4373 24.1891 64.1597 23.7763 63.9596 23.3033C63.7595 22.8302 63.6595 22.3195 63.6595 21.7714ZM49.6506 18.0813H46.8235V25.4615H49.8733C50.2606 25.4615 50.6091 25.4159 50.919 25.3245C51.2288 25.2331 51.4918 25.0961 51.708 24.9134C51.9243 24.7307 52.0921 24.5056 52.2115 24.238C52.3309 23.9705 52.3906 23.6638 52.3906 23.3179C52.3906 23.0961 52.3648 22.8873 52.3131 22.6915C52.2615 22.4957 52.176 22.3195 52.0566 22.1629C51.9372 22.0063 51.7823 21.8742 51.5918 21.7665C51.4014 21.6588 51.1707 21.5789 50.8996 21.5267C51.1707 21.357 51.3724 21.1499 51.5047 20.9052C51.637 20.6605 51.7032 20.3521 51.7032 19.9802C51.7032 19.3668 51.5289 18.897 51.1804 18.5707C50.8318 18.2444 50.3219 18.0813 49.6506 18.0813ZM48.7212 20.9786H49.0697C49.6635 20.9786 49.9605 20.7404 49.9605 20.264C49.9605 19.7877 49.6635 19.5495 49.0697 19.5495H48.7212V20.9786ZM48.7212 23.9737H49.1375C49.6151 23.9737 49.9572 23.9117 50.1638 23.7878C50.3703 23.6638 50.4736 23.4648 50.4736 23.1907C50.4736 22.9166 50.3703 22.7176 50.1638 22.5936C49.9572 22.4696 49.6151 22.4076 49.1375 22.4076H48.7212V23.9737ZM58.1509 18.0813V23.8367H60.4261V25.4615H56.2533V18.0813H58.1509ZM65.8089 22.5838C65.6991 22.3359 65.6443 22.0651 65.6443 21.7714C65.6443 21.4778 65.6991 21.207 65.8089 20.959C65.9186 20.711 66.067 20.4957 66.2542 20.313C66.4414 20.1303 66.6593 19.9883 66.9078 19.8872C67.1563 19.786 67.4193 19.7355 67.6968 19.7355C67.9744 19.7355 68.2374 19.786 68.4859 19.8872C68.7344 19.9883 68.9539 20.1303 69.1443 20.313C69.3347 20.4957 69.4847 20.711 69.5945 20.959C69.7042 21.207 69.7591 21.4778 69.7591 21.7714C69.7591 22.0651 69.7042 22.3359 69.5945 22.5838C69.4847 22.8318 69.3347 23.0471 69.1443 23.2298C68.9539 23.4126 68.7344 23.5545 68.4859 23.6556C68.2374 23.7568 67.9744 23.8073 67.6968 23.8073C67.4193 23.8073 67.1563 23.7568 66.9078 23.6556C66.6593 23.5545 66.4414 23.4126 66.2542 23.2298C66.067 23.0471 65.9186 22.8318 65.8089 22.5838ZM79.305 19.7355C79.9504 19.7355 80.4926 20.0063 80.9315 20.5479V18.2575C80.6217 18.127 80.3264 18.0307 80.0456 17.9687C79.7649 17.9067 79.4793 17.8757 79.1888 17.8757C78.6789 17.8757 78.1916 17.972 77.7268 18.1645C77.2621 18.357 76.8539 18.6245 76.5021 18.9671C76.1503 19.3097 75.8695 19.7175 75.6598 20.1906C75.45 20.6637 75.3451 21.1841 75.3451 21.7518C75.3451 22.3195 75.4516 22.8432 75.6646 23.3228C75.8776 23.8024 76.16 24.2168 76.5118 24.5659C76.8635 24.915 77.2702 25.1858 77.7317 25.3783C78.1932 25.5708 78.6757 25.6671 79.1791 25.6671C79.4244 25.6671 79.6729 25.6426 79.9246 25.5937C80.1764 25.5447 80.4474 25.4681 80.7379 25.3637L80.9315 25.2951V23.0243C80.4474 23.5463 79.902 23.8073 79.2953 23.8073C79.0178 23.8073 78.7596 23.7551 78.5208 23.6507C78.2819 23.5463 78.0738 23.4028 77.8963 23.2201C77.7188 23.0373 77.58 22.822 77.4799 22.574C77.3799 22.3261 77.3299 22.0553 77.3299 21.7616C77.3299 21.4745 77.3799 21.207 77.4799 20.959C77.58 20.711 77.7172 20.4973 77.8914 20.3179C78.0657 20.1384 78.2739 19.9965 78.5159 19.8921C78.758 19.7877 79.021 19.7355 79.305 19.7355ZM87.0694 21.1254L89.3834 18.0813H91.7264L88.8315 21.5756L91.9975 25.4615H89.5383L87.0694 22.2608V25.4615H85.1718V18.0813H87.0694V21.1254ZM98.0967 21.468H97.4674V19.6278H98.0967C98.7938 19.6278 99.1423 19.9345 99.1423 20.5479C99.1423 21.1613 98.7938 21.468 98.0967 21.468ZM97.4674 25.4615H95.5697V18.0813H98.5905C99.4102 18.0813 100.038 18.2966 100.474 18.7273C100.909 19.158 101.127 19.7648 101.127 20.5479C101.127 21.3309 100.909 21.9378 100.474 22.3685C100.038 22.7992 99.4102 23.0145 98.5905 23.0145H97.4674V25.4615ZM107.575 20.264L108.427 22.7209H106.723L107.575 20.264ZM108.93 24.1793H106.219L105.784 25.4615H103.76L106.539 18.0813H108.611L111.389 25.4615H109.366L108.93 24.1793ZM118.341 19.5935C118.547 19.6751 118.754 19.8007 118.96 19.9704L119.715 18.4728C119.354 18.277 118.976 18.1286 118.583 18.0274C118.189 17.9263 117.811 17.8757 117.45 17.8757C117.063 17.8757 116.712 17.9345 116.399 18.0519C116.086 18.1694 115.822 18.3341 115.606 18.5462C115.389 18.7583 115.221 19.0128 115.102 19.3097C114.983 19.6066 114.923 19.9378 114.923 20.3032C114.923 20.6686 114.979 20.9704 115.092 21.2086C115.205 21.4468 115.354 21.6442 115.538 21.8008C115.722 21.9574 115.931 22.083 116.167 22.1776C116.403 22.2722 116.643 22.3587 116.888 22.437C117.095 22.5088 117.271 22.574 117.416 22.6328C117.561 22.6915 117.679 22.7551 117.769 22.8236C117.86 22.8921 117.924 22.9672 117.963 23.0488C118.002 23.1303 118.021 23.2266 118.021 23.3375C118.021 23.5202 117.945 23.6834 117.794 23.8269C117.642 23.9705 117.411 24.0423 117.101 24.0423C116.83 24.0423 116.556 23.9803 116.278 23.8563C116.001 23.7323 115.72 23.5431 115.436 23.2886L114.623 24.8351C115.41 25.3898 116.266 25.6671 117.189 25.6671C117.634 25.6671 118.032 25.6067 118.384 25.486C118.736 25.3653 119.033 25.1956 119.275 24.977C119.517 24.7584 119.701 24.4958 119.827 24.1891C119.953 23.8824 120.016 23.5398 120.016 23.1613C120.016 22.6001 119.872 22.145 119.585 21.7959C119.298 21.4468 118.844 21.1678 118.224 20.959C118.07 20.9068 117.913 20.8578 117.755 20.8122C117.597 20.7665 117.455 20.7127 117.329 20.6507C117.203 20.5887 117.101 20.5153 117.024 20.4304C116.946 20.3456 116.908 20.2379 116.908 20.1074C116.908 19.9182 116.985 19.7648 117.14 19.6474C117.295 19.5299 117.495 19.4712 117.74 19.4712C117.934 19.4712 118.134 19.512 118.341 19.5935ZM127.945 19.9704C127.738 19.8007 127.532 19.6751 127.325 19.5935C127.118 19.512 126.918 19.4712 126.725 19.4712C126.479 19.4712 126.279 19.5299 126.124 19.6474C125.97 19.7648 125.892 19.9182 125.892 20.1074C125.892 20.2379 125.931 20.3456 126.008 20.4304C126.086 20.5153 126.187 20.5887 126.313 20.6507C126.439 20.7127 126.581 20.7665 126.739 20.8122C126.897 20.8578 127.054 20.9068 127.209 20.959C127.828 21.1678 128.282 21.4468 128.569 21.7959C128.856 22.145 129 22.6001 129 23.1613C129 23.5398 128.937 23.8824 128.811 24.1891C128.685 24.4958 128.501 24.7584 128.259 24.977C128.017 25.1956 127.72 25.3653 127.369 25.486C127.017 25.6067 126.618 25.6671 126.173 25.6671C125.25 25.6671 124.395 25.3898 123.607 24.8351L124.42 23.2886C124.704 23.5431 124.985 23.7323 125.263 23.8563C125.54 23.9803 125.815 24.0423 126.086 24.0423C126.396 24.0423 126.626 23.9705 126.778 23.8269C126.93 23.6834 127.006 23.5202 127.006 23.3375C127.006 23.2266 126.986 23.1303 126.947 23.0488C126.909 22.9672 126.844 22.8921 126.754 22.8236C126.663 22.7551 126.546 22.6915 126.4 22.6328C126.255 22.574 126.079 22.5088 125.873 22.437C125.627 22.3587 125.387 22.2722 125.151 22.1776C124.916 22.083 124.706 21.9574 124.522 21.8008C124.338 21.6442 124.19 21.4468 124.077 21.2086C123.964 20.9704 123.907 20.6686 123.907 20.3032C123.907 19.9378 123.967 19.6066 124.086 19.3097C124.206 19.0128 124.374 18.7583 124.59 18.5462C124.806 18.3341 125.071 18.1694 125.384 18.0519C125.697 17.9345 126.047 17.8757 126.434 17.8757C126.796 17.8757 127.173 17.9263 127.567 18.0274C127.961 18.1286 128.338 18.277 128.7 18.4728L127.945 19.9704Z" fill="white"/>
</svg>
